<svg width="728" height="728" viewBox="0 0 728 728" fill="none" xmlns="http://www.w3.org/2000/svg">
<path fill-rule="evenodd" clip-rule="evenodd" d="M0 0H728L469.239 469.239L0 728V0Z" fill="white"/>
<path fill-rule="evenodd" clip-rule="evenodd" d="M728 0V728H0L728 0Z" fill="#808080"/>
<path d="M639.627 88.3732H88.3732V639.627H639.627V88.3732Z" fill="#C6C6C6"/>
<path fill-rule="evenodd" clip-rule="evenodd" d="M591.6 448.716V550.191C591.6 589.29 554.16 592.455 504.28 592.455H177.472C129.491 592.455 136.337 568.985 136.337 540.252V503.121H429.302C445.799 503.121 454.124 495.049 454.124 485.189V427.549C454.124 417.689 445.79 410.892 429.302 410.912L136.146 411.343L136.105 139.008L590.255 138L590.357 162.082C592.188 217.061 577.503 230.267 535.235 230.415L270.666 230.447L270.436 321.91L505.157 321.007C543.765 320.859 590.828 319.062 591.49 363.147C591.76 381.347 591.6 431.8 591.6 448.716Z" fill="#800000" fill-opacity="0.4"/>
</svg>
