<svg width="728" height="728" viewBox="0 0 728 728" fill="none" xmlns="http://www.w3.org/2000/svg">
<path d="M728 0H0V728H728V0Z" fill="#808080"/>
<path d="M727.999 44.4413H44.4412V727.999H727.999V44.4413Z" fill="#C6C6C6"/>
<path fill-rule="evenodd" clip-rule="evenodd" d="M613.337 462.909V554.445C613.337 583.175 573.999 606.648 526.018 606.648H199.21C151.229 606.648 158.075 583.178 158.075 554.445V517.314H451.04C467.536 517.314 481.039 509.242 481.039 499.382V441.742C481.039 431.882 467.539 423.81 451.04 423.81H294.263V334.475V333.471H451.04C467.539 333.471 481.039 325.399 481.039 315.539V257.898C481.039 248.038 467.536 239.966 451.04 239.966H158.075V202.835C158.075 174.103 147.673 150.632 195.657 150.632H526.018C574.002 150.632 613.337 174.106 613.337 202.835V292.668C614.525 316.567 608.905 328.034 594.374 334.135C574.678 342.405 568.251 355.867 568.251 365.759V392.442C568.251 411.055 577.025 418.338 593.862 426.273C610.341 434.04 613.337 445.99 613.337 462.909Z" fill="#EC0000"/>
<rect width="728" height="728" fill="black" fill-opacity="0.7"/>
</svg>
