<svg width="94" height="94" viewBox="0 0 94 94" fill="none" xmlns="http://www.w3.org/2000/svg">
<g clip-path="url(#clip0_25_50)">
<path fill-rule="evenodd" clip-rule="evenodd" d="M0 0H94L60.5886 60.5886L0 94V0Z" fill="#707880"/>
<path fill-rule="evenodd" clip-rule="evenodd" d="M94 0V94H0L94 0Z" fill="#222A32"/>
<path d="M82.5893 11.4108H11.4109V82.5891H82.5893V11.4108Z" fill="#4C545C"/>
<path fill-rule="evenodd" clip-rule="evenodd" d="M15.3866 48.7794L14.9226 46.7815L15.3866 44.7561H44.8307V15.312L46.8301 14.9225L48.854 15.312V44.7561H78.2984L78.5919 46.7768L78.2984 48.7794H48.854V78.2238L46.9402 78.5717L44.8307 78.2238V48.7794H15.3866Z" fill="black" stroke="black" stroke-width="0.288"/>
<path d="M31.013 33.917C32.7749 33.917 34.2032 32.4887 34.2032 30.7267C34.2032 28.9648 32.7749 27.5365 31.013 27.5365C29.2511 27.5365 27.8228 28.9648 27.8228 30.7267C27.8228 32.4887 29.2511 33.917 31.013 33.917Z" fill="black" stroke="black" stroke-width="0.288"/>
<path fill-rule="evenodd" clip-rule="evenodd" d="M27.4983 68.755L25.7725 67.7742L24.855 66.1117L44.199 46.768L24.855 27.4242L25.9635 25.7555L27.4983 24.7808L46.8421 44.1246L66.1862 24.7805L67.858 25.7747L68.8295 27.4238L49.4854 46.768L68.8295 66.112L67.9217 67.8329L66.1862 68.7554L46.8421 49.4113L27.4983 68.755Z" fill="black" stroke="black" stroke-width="0.288"/>
<path d="M47.0084 27.5919C48.7703 27.5919 50.1986 26.1636 50.1986 24.4017C50.1986 22.6397 48.7703 21.2114 47.0084 21.2114C45.2464 21.2114 43.8181 22.6397 43.8181 24.4017C43.8181 26.1636 45.2464 27.5919 47.0084 27.5919Z" fill="black" stroke="black" stroke-width="0.288"/>
<path d="M46.8425 68.3482C58.963 68.3482 68.7885 58.5227 68.7885 46.4022C68.7885 34.2817 58.963 24.4562 46.8425 24.4562C34.7221 24.4562 24.8965 34.2817 24.8965 46.4022C24.8965 58.5227 34.7221 68.3482 46.8425 68.3482Z" fill="url(#paint0_radial_25_50)"/>
<path d="M62.0516 34.7717C63.8135 34.7717 65.2418 33.3434 65.2418 31.5815C65.2418 29.8196 63.8135 28.3912 62.0516 28.3912C60.2896 28.3912 58.8613 29.8196 58.8613 31.5815C58.8613 33.3434 60.2896 34.7717 62.0516 34.7717Z" fill="black" stroke="black" stroke-width="0.288"/>
<path d="M31.5257 65.1611C33.2876 65.1611 34.7159 63.7328 34.7159 61.9709C34.7159 60.209 33.2876 58.7806 31.5257 58.7806C29.7638 58.7806 28.3354 60.209 28.3354 61.9709C28.3354 63.7328 29.7638 65.1611 31.5257 65.1611Z" fill="black" stroke="black" stroke-width="0.288"/>
<path d="M62.0516 65.1611C63.8135 65.1611 65.2418 63.7328 65.2418 61.9709C65.2418 60.209 63.8135 58.7806 62.0516 58.7806C60.2896 58.7806 58.8613 60.209 58.8613 61.9709C58.8613 63.7328 60.2896 65.1611 62.0516 65.1611Z" fill="black" stroke="black" stroke-width="0.288"/>
</g>
<defs>
<radialGradient id="paint0_radial_25_50" cx="0" cy="0" r="1" gradientUnits="userSpaceOnUse" gradientTransform="translate(42.4532 42.8909) scale(11.212)">
<stop stop-color="#CCCCCC"/>
<stop offset="0.129412" stop-color="#AAAAAA"/>
<stop offset="0.290196" stop-color="#888888"/>
<stop offset="0.439216" stop-color="#666666"/>
<stop offset="0.74902" stop-color="#333333"/>
<stop offset="1"/>
</radialGradient>
<clipPath id="clip0_25_50">
<rect width="94" height="94" fill="white"/>
</clipPath>
</defs>
</svg>
