<svg width="728" height="728" viewBox="0 0 728 728" fill="none" xmlns="http://www.w3.org/2000/svg">
<path fill-rule="evenodd" clip-rule="evenodd" d="M0 0H728L469.239 469.239L0 728V0Z" fill="white"/>
<path fill-rule="evenodd" clip-rule="evenodd" d="M728 0V728H0L728 0Z" fill="#808080"/>
<path d="M639.627 88.3732H88.373V639.627H639.627V88.3732Z" fill="#C6C6C6"/>
<g opacity="0.15">
<path fill-rule="evenodd" clip-rule="evenodd" d="M115.667 379.564L112 363.775L115.667 347.769H348.358V115.078L364.159 112L380.153 115.078V347.769H612.847L615.166 363.739L612.847 379.564H380.153V612.258L365.029 615.008L348.358 612.258V379.564H115.667Z" fill="black" stroke="black" stroke-width="0.288"/>
<path d="M239.16 262.11C253.084 262.11 264.372 250.822 264.372 236.898C264.372 222.974 253.084 211.686 239.16 211.686C225.236 211.686 213.948 222.974 213.948 236.898C213.948 250.822 225.236 262.11 239.16 262.11Z" fill="black" stroke="black" stroke-width="0.288"/>
<path fill-rule="evenodd" clip-rule="evenodd" d="M211.384 537.428L197.745 529.677L190.494 516.538L343.367 363.668L190.494 210.798L199.255 197.611L211.384 189.908L364.255 342.778L517.127 189.906L530.339 197.762L538.016 210.795L385.144 363.668L538.016 516.541L530.842 530.14L517.127 537.431L364.255 384.558L211.384 537.428Z" fill="black" stroke="black" stroke-width="0.288"/>
<path d="M365.567 212.125C379.491 212.125 390.779 200.837 390.779 186.913C390.779 172.989 379.491 161.701 365.567 161.701C351.643 161.701 340.355 172.989 340.355 186.913C340.355 200.837 351.643 212.125 365.567 212.125Z" fill="black" stroke="black" stroke-width="0.288"/>
<path d="M364.257 534.213C460.043 534.213 537.692 456.563 537.692 360.778C537.692 264.992 460.043 187.343 364.257 187.343C268.472 187.343 190.822 264.992 190.822 360.778C190.822 456.563 268.472 534.213 364.257 534.213Z" fill="url(#paint0_radial_2_38)"/>
<path d="M484.452 268.865C498.376 268.865 509.664 257.577 509.664 243.653C509.664 229.729 498.376 218.441 484.452 218.441C470.527 218.441 459.24 229.729 459.24 243.653C459.24 257.577 470.527 268.865 484.452 268.865Z" fill="black" stroke="black" stroke-width="0.288"/>
<path d="M243.213 509.026C257.137 509.026 268.425 497.739 268.425 483.815C268.425 469.89 257.137 458.603 243.213 458.603C229.289 458.603 218.001 469.89 218.001 483.815C218.001 497.739 229.289 509.026 243.213 509.026Z" fill="black" stroke="black" stroke-width="0.288"/>
<path d="M484.452 509.026C498.376 509.026 509.664 497.739 509.664 483.815C509.664 469.89 498.376 458.603 484.452 458.603C470.527 458.603 459.24 469.89 459.24 483.815C459.24 497.739 470.527 509.026 484.452 509.026Z" fill="black" stroke="black" stroke-width="0.288"/>
<path d="M333.72 362.119C346.63 362.119 357.096 351.653 357.096 338.742C357.096 325.832 346.63 315.366 333.72 315.366C320.809 315.366 310.343 325.832 310.343 338.742C310.343 351.653 320.809 362.119 333.72 362.119Z" fill="white"/>
</g>
<defs>
<radialGradient id="paint0_radial_2_38" cx="0" cy="0" r="1" gradientUnits="userSpaceOnUse" gradientTransform="translate(329.57 333.028) scale(88.6059)">
<stop stop-color="white"/>
<stop offset="0.129412" stop-color="#E5E5E1"/>
<stop offset="0.290196" stop-color="#CCC8C8"/>
<stop offset="0.439216" stop-color="#B2B4B4"/>
<stop offset="0.74902" stop-color="#464D43"/>
<stop offset="1"/>
</radialGradient>
</defs>
</svg>
