<svg width="728" height="728" viewBox="0 0 728 728" fill="none" xmlns="http://www.w3.org/2000/svg">
<path fill-rule="evenodd" clip-rule="evenodd" d="M0 0H728L469.239 469.239L0 728V0Z" fill="white"/>
<path fill-rule="evenodd" clip-rule="evenodd" d="M728 0V728H0L728 0Z" fill="#808080"/>
<path d="M639.627 88.3732H88.3732V639.627H639.627V88.3732Z" fill="#C6C6C6"/>
<path fill-rule="evenodd" clip-rule="evenodd" d="M591.598 447.715V528.942C591.598 577.485 554.153 591.454 504.279 591.454H200.396C152.421 591.454 136.338 562.584 136.338 533.852V530.544L136 354.951L136.114 189.116C135.202 163.255 154.777 137.39 194.837 137.865L548.306 137L548.359 152.486C550.115 210.618 542.98 227.522 496.417 229.069L275.703 228.099L275.473 319.562L505.156 320.007C553.201 320.101 590.832 331.562 591.488 375.644C591.756 393.838 591.598 430.802 591.598 447.715ZM273.548 502.119H429.302C445.798 502.119 454.123 494.047 454.123 484.187V426.548C454.123 416.688 445.789 409.891 429.302 409.911L273.548 410.141L273.548 502.119Z" fill="#008080" fill-opacity="0.15"/>
</svg>
