<svg width="728" height="728" viewBox="0 0 728 728" fill="none" xmlns="http://www.w3.org/2000/svg">
<path fill-rule="evenodd" clip-rule="evenodd" d="M0 0H728L469.239 469.239L0 728V0Z" fill="white"/>
<path fill-rule="evenodd" clip-rule="evenodd" d="M728 0V728H0L728 0Z" fill="#808080"/>
<path d="M639.627 88.3732H88.3732V639.627H639.627V88.3732Z" fill="#C6C6C6"/>
<path fill-rule="evenodd" clip-rule="evenodd" d="M303.746 499.723H431.303C447.8 499.723 456.125 491.651 456.125 481.791V425.458C456.125 415.598 447.785 408.801 431.303 408.822L303.746 409.011C285.703 408.155 273.857 412.645 275.549 429.232V479.825C274.783 494.012 284.186 500.643 303.746 499.723ZM593.6 447.717V528.945C593.6 577.488 556.155 591.457 506.281 591.457H202.396C154.421 591.457 138.338 562.587 138.338 533.854V530.546L138.906 431.538C139.101 400.001 145.801 387.799 181.651 389.145C196.185 386.606 200.83 341.822 183.008 340.016C133.653 337.599 138.125 306.089 138.137 273.55L138.114 189.116C137.202 163.255 156.777 137.39 196.837 137.865L550.308 137C579.227 138.82 593.667 155.101 593.647 185.846L593.415 287.854C593.88 325.142 589.108 338.38 553.223 339.714C536.587 340.107 538.174 389.617 552.006 389.442C595.587 391.41 593.464 423.378 593.49 426.078C593.514 428.34 593.6 432.918 593.6 447.717ZM303.746 317.009H431.303C447.8 317.009 456.125 308.937 456.125 299.077V242.744C456.125 232.884 447.785 226.087 431.303 226.108L303.746 226.297C285.703 225.441 273.857 229.931 275.549 246.518V297.111C274.783 311.298 284.186 317.929 303.746 317.009Z" fill="#707070" fill-opacity="0.18"/>
</svg>
