<svg width="728" height="728" viewBox="0 0 728 728" fill="none" xmlns="http://www.w3.org/2000/svg">
<g clip-path="url(#clip0_8_393)">
<path fill-rule="evenodd" clip-rule="evenodd" d="M0 0H728L469.239 469.239L0 728V0Z" fill="white"/>
<path fill-rule="evenodd" clip-rule="evenodd" d="M728 0V728H0L728 0Z" fill="#808080"/>
<path d="M639.627 88.3732H88.3732V639.627H639.627V88.3732Z" fill="#C6C6C6"/>
<path fill-rule="evenodd" clip-rule="evenodd" d="M138.014 273.266H270.364V229.26C325.66 229.504 372.823 228.66 428.122 228.901C437.959 229.414 472.373 223.217 471.054 258.516L471.211 275.851C470.029 304.028 435.632 305.388 411.096 316.477C229.672 372.143 139.628 399.865 139.473 435.916C138.433 454.194 138.824 478.719 138.48 497.688L138.57 588.642L588.355 591.577L586.89 502.097L271.267 501.486L271.11 488.265C272.013 478.679 268.615 466.778 281.165 461.166C334.618 441.367 447.018 404.164 550.776 369.534C584.817 354.657 590.58 315.409 590.371 276.062L590.816 196.052C590.63 158.813 570.473 134.547 534.705 136.068L188.797 136.627C142.898 138.272 138.055 180.901 138 204.715L138.014 273.266Z" fill="#007700"/>
</g>
<defs>
<clipPath id="clip0_8_393">
<rect width="728" height="728" fill="white"/>
</clipPath>
</defs>
</svg>
