<svg width="94" height="94" viewBox="0 0 94 94" fill="none" xmlns="http://www.w3.org/2000/svg">
<g clip-path="url(#clip0_23_211)">
<path d="M94 0H0V94H94V0Z" fill="#1E262E"/>
<path d="M93.9996 5.73828H5.73828V93.9996H93.9996V5.73828Z" fill="#464E56"/>
<path fill-rule="evenodd" clip-rule="evenodd" d="M11.6083 52.3159L11.0439 49.8858L11.6083 47.4223H47.4223V11.6083L49.8542 11.1345L52.3159 11.6083V47.4223H88.1303L88.4873 49.8801L88.1303 52.3159H52.3159V88.1302L49.9881 88.5534L47.4223 88.1302V52.3159H11.6083Z" fill="black" stroke="black" stroke-width="0.288"/>
<path d="M30.6153 34.2381C32.7584 34.2381 34.4957 32.5008 34.4957 30.3577C34.4957 28.2146 32.7584 26.4773 30.6153 26.4773C28.4722 26.4773 26.7349 28.2146 26.7349 30.3577C26.7349 32.5008 28.4722 34.2381 30.6153 34.2381Z" fill="black" stroke="black" stroke-width="0.288"/>
<path fill-rule="evenodd" clip-rule="evenodd" d="M26.3401 76.6129L24.241 75.4199L23.125 73.3978L46.6539 49.8692L23.125 26.3407L24.4733 24.311L26.3401 23.1255L49.8688 46.654L73.3977 23.1251L75.4311 24.3343L76.6128 26.3403L53.0839 49.8692L76.6128 73.3981L75.5086 75.4913L73.3977 76.6134L49.8688 53.0844L26.3401 76.6129Z" fill="black" stroke="black" stroke-width="0.288"/>
<path d="M50.0708 26.5449C52.2139 26.5449 53.9513 24.8076 53.9513 22.6645C53.9513 20.5214 52.2139 18.7841 50.0708 18.7841C47.9277 18.7841 46.1904 20.5214 46.1904 22.6645C46.1904 24.8076 47.9277 26.5449 50.0708 26.5449Z" fill="black" stroke="black" stroke-width="0.288"/>
<path d="M49.8693 76.1181C64.6118 76.1181 76.563 64.1669 76.563 49.4243C76.563 34.6818 64.6118 22.7306 49.8693 22.7306C35.1267 22.7306 23.1755 34.6818 23.1755 49.4243C23.1755 64.1669 35.1267 76.1181 49.8693 76.1181Z" fill="url(#paint0_radial_23_211)"/>
<path d="M68.3687 35.2778C70.5118 35.2778 72.2491 33.5405 72.2491 31.3974C72.2491 29.2543 70.5118 27.517 68.3687 27.517C66.2256 27.517 64.4883 29.2543 64.4883 31.3974C64.4883 33.5405 66.2256 35.2778 68.3687 35.2778Z" fill="black" stroke="black" stroke-width="0.288"/>
<path d="M31.2391 72.2415C33.3821 72.2415 35.1195 70.5042 35.1195 68.3611C35.1195 66.218 33.3821 64.4807 31.2391 64.4807C29.096 64.4807 27.3586 66.218 27.3586 68.3611C27.3586 70.5042 29.096 72.2415 31.2391 72.2415Z" fill="black" stroke="black" stroke-width="0.288"/>
<path d="M68.3687 72.2415C70.5118 72.2415 72.2491 70.5042 72.2491 68.3611C72.2491 66.218 70.5118 64.4807 68.3687 64.4807C66.2256 64.4807 64.4883 66.218 64.4883 68.3611C64.4883 70.5042 66.2256 72.2415 68.3687 72.2415Z" fill="black" stroke="black" stroke-width="0.288"/>
<rect width="94.0018" height="94.0018" fill="black" fill-opacity="0.7"/>
</g>
<defs>
<radialGradient id="paint0_radial_23_211" cx="0" cy="0" r="1" gradientUnits="userSpaceOnUse" gradientTransform="translate(44.5304 45.1534) scale(13.6375)">
<stop stop-color="#CCCCCC"/>
<stop offset="0.129412" stop-color="#AAAAAA"/>
<stop offset="0.290196" stop-color="#888888"/>
<stop offset="0.439216" stop-color="#666666"/>
<stop offset="0.74902" stop-color="#333333"/>
<stop offset="1"/>
</radialGradient>
<clipPath id="clip0_23_211">
<rect width="94" height="94" fill="white"/>
</clipPath>
</defs>
</svg>
