<svg width="94" height="94" viewBox="0 0 94 94" fill="none" xmlns="http://www.w3.org/2000/svg">
<g clip-path="url(#clip0_23_207)">
<path d="M94 0H0V94H94V0Z" fill="#1E262E"/>
<path d="M93.9999 5.73828H5.73828V93.9999H93.9999V5.73828Z" fill="#384048"/>
<path fill-rule="evenodd" clip-rule="evenodd" d="M80.5147 58.8378V69.326C80.5147 75.5939 75.6798 77.3976 69.24 77.3976H30.0023C23.8077 77.3976 21.7311 73.6699 21.7311 69.9599V69.5328L21.6875 46.8601L21.7022 25.4473C21.5845 22.1081 24.1119 18.7685 29.2846 18.8298L74.9248 18.7181L74.9316 20.7176C75.1583 28.2237 74.2371 30.4064 68.2249 30.6061L39.726 30.4809L39.6963 42.2906L69.3532 42.3482C75.5568 42.3602 80.4159 43.8401 80.5005 49.532C80.5351 51.8812 80.5147 56.654 80.5147 58.8378ZM39.4478 65.8626H39.6128H59.5588C61.6889 65.8626 62.7639 64.8204 62.7639 63.5472V56.1047C62.7639 54.8316 61.6878 53.954 59.5588 53.9566L39.4478 53.9863L39.4478 65.8626Z" fill="#66CCCC"/>
<rect width="94.0018" height="94.0018" fill="black" fill-opacity="0.7"/>
</g>
<defs>
<clipPath id="clip0_23_207">
<rect width="94" height="94" fill="white"/>
</clipPath>
</defs>
</svg>
