<svg width="94" height="94" viewBox="0 0 94 94" fill="none" xmlns="http://www.w3.org/2000/svg">
<g clip-path="url(#clip0_23_203)">
<path d="M94 0H0V94H94V0Z" fill="#1E262E"/>
<path d="M93.9999 5.73828H5.73828V93.9999H93.9999V5.73828Z" fill="#384048"/>
<path fill-rule="evenodd" clip-rule="evenodd" d="M20.8492 37.4696H37.9384V31.7875C45.0782 31.8191 51.168 31.71 58.3082 31.7412C59.5783 31.8074 64.0219 31.0073 63.8516 35.5651L63.8719 37.8035C63.7192 41.4417 59.2779 41.6172 56.1097 43.0491C32.6841 50.2367 21.0576 53.8162 21.0376 58.4711C20.9034 60.8313 20.9538 63.9979 20.9094 66.4472L20.921 78.1912L78.9976 78.5702L78.8085 67.0165L38.055 66.9376L38.0347 65.2305C38.1513 63.9927 37.7125 62.456 39.3331 61.7315C46.2349 59.175 60.7481 54.3713 74.1454 49.8999C78.5409 47.9789 79.285 42.9112 79.2579 37.8306L79.3154 27.4997C79.2914 22.6914 76.6887 19.5582 72.0703 19.7544L27.4064 19.8266C21.4798 20.0391 20.8546 25.5433 20.8474 28.6183L20.8492 37.4696Z" fill="#66C266"/>
<rect width="94.0018" height="94.0018" fill="black" fill-opacity="0.7"/>
</g>
<defs>
<clipPath id="clip0_23_203">
<rect width="94" height="94" fill="white"/>
</clipPath>
</defs>
</svg>
