<svg width="94" height="94" viewBox="0 0 94 94" fill="none" xmlns="http://www.w3.org/2000/svg">
<g clip-path="url(#clip0_23_205)">
<path d="M94 0H0V94H94V0Z" fill="#1E262E"/>
<path d="M94.0001 5.73828H5.73828V94.0001H94.0001V5.73828Z" fill="#384048"/>
<path fill-rule="evenodd" clip-rule="evenodd" d="M55.8779 19.6644H72.8957V43.2698H76.6012C77.5363 43.2698 78.9343 43.6695 78.9343 45.5623C78.9343 47.4551 78.9343 51.6287 78.9343 52.1905C78.9343 52.7522 79.3475 54.8571 76.8757 54.9353C74.4038 55.0135 72.8957 55.0725 72.8957 55.0725V78.2661H55.4665V54.7983H28.6336C22.6714 54.7983 16.5888 56.0072 21.4832 46.4503L30.2388 25.3503C31.3217 21.846 33.7984 19.7359 38.3123 19.6644H49.1531L39.6836 43.2698H55.329L55.8779 19.6644Z" fill="#EE88FF"/>
<rect width="94.0018" height="94.0018" fill="black" fill-opacity="0.7"/>
</g>
<defs>
<clipPath id="clip0_23_205">
<rect width="94" height="94" fill="white"/>
</clipPath>
</defs>
</svg>
