<svg width="94" height="94" viewBox="0 0 94 94" fill="none" xmlns="http://www.w3.org/2000/svg">
<g clip-path="url(#clip0_23_204)">
<path d="M94 0H0V94H94V0Z" fill="#1E262E"/>
<path d="M93.9999 5.73828H5.73828V93.9999H93.9999V5.73828Z" fill="#384048"/>
<path fill-rule="evenodd" clip-rule="evenodd" d="M79.1945 59.7712V71.5904C79.1945 75.3 74.1151 78.3309 67.9198 78.3309H25.7221C19.5267 78.3309 20.4107 75.3004 20.4107 71.5904V66.796H58.2385C60.3686 66.796 62.1121 65.7537 62.1121 64.4806V57.0381C62.1121 55.7649 60.369 54.7227 58.2385 54.7227H37.9954V43.1877V43.058H58.2385C60.369 43.058 62.1121 42.0157 62.1121 40.7426V33.3C62.1121 32.0269 60.3686 30.9846 58.2385 30.9846H20.4107V26.1903C20.4107 22.4803 19.0676 19.4497 25.2633 19.4497H67.9198C74.1155 19.4497 79.1946 22.4806 79.1946 26.1903V37.7895C79.348 40.8753 78.6223 42.356 76.7461 43.1437C74.2028 44.2116 73.373 45.9498 73.373 47.2271V50.6724C73.373 53.0758 74.5058 54.0162 76.6799 55.0408C78.8077 56.0436 79.1945 57.5866 79.1945 59.7712Z" fill="#FF7788"/>
<path d="M0 0H94.0018V94.0018H0V0Z" fill="black" fill-opacity="0.7"/>
</g>
<defs>
<clipPath id="clip0_23_204">
<rect width="94" height="94" fill="white"/>
</clipPath>
</defs>
</svg>
