<svg width="94" height="94" viewBox="0 0 94 94" fill="none" xmlns="http://www.w3.org/2000/svg">
<g clip-path="url(#clip0_23_208)">
<path d="M94 0H0V94H94V0Z" fill="#1E262E"/>
<path d="M94.0002 5.73828H5.73828V94.0002H94.0002V5.73828Z" fill="#384048"/>
<path fill-rule="evenodd" clip-rule="evenodd" d="M19.9844 19.9769H78.5574V34.4345C78.7653 39.2034 77.6264 42.6257 75.8765 45.4367L57.924 78.4694C55.1713 78.4694 52.419 78.4694 49.6666 78.4694C45.3667 78.3912 43.9352 78.2875 43.8961 74.5489C43.7341 71.5766 44.544 68.7487 46.8297 65.0917L58.5951 44.6016C59.7919 42.8186 61.1497 40.3558 60.9974 36.9315V32.6143H26.635C23.3537 32.6914 19.9467 31.6495 19.9731 25.6267L19.9844 19.9769Z" fill="#999999"/>
<rect width="94.0018" height="94.0018" fill="black" fill-opacity="0.7"/>
</g>
<defs>
<clipPath id="clip0_23_208">
<rect width="94" height="94" fill="white"/>
</clipPath>
</defs>
</svg>
