<svg width="94" height="94" viewBox="0 0 94 94" fill="none" xmlns="http://www.w3.org/2000/svg">
<g clip-path="url(#clip0_23_206)">
<path d="M94 0H0V94H94V0Z" fill="#1E262E"/>
<path d="M93.9998 5.73828H5.73828V93.9998H93.9998V5.73828Z" fill="#384048"/>
<path fill-rule="evenodd" clip-rule="evenodd" d="M79.2801 59.3497V72.4522C79.2801 77.5007 74.4458 77.9095 68.0053 77.9095H25.8076C19.6122 77.9095 20.4962 74.8789 20.4962 71.1689V66.3745H58.3241C60.4541 66.3745 61.5291 65.3323 61.5291 64.0591V56.6166C61.5291 55.3434 60.453 54.4659 58.3241 54.4685L20.4715 54.5241L20.4662 19.3599L79.1064 19.2298L79.1196 22.3393C79.3561 29.4382 77.4599 31.1433 72.0022 31.1625L37.8408 31.1666L37.8111 42.9764L68.1185 42.8598C73.1036 42.8407 79.1804 42.6087 79.2658 48.3009C79.3008 50.6509 79.2801 57.1655 79.2801 59.3497Z" fill="#DDAA22"/>
<rect width="94.0018" height="94.0018" fill="black" fill-opacity="0.7"/>
</g>
<defs>
<clipPath id="clip0_23_206">
<rect width="94" height="94" fill="white"/>
</clipPath>
</defs>
</svg>
