<svg width="94" height="94" viewBox="0 0 94 94" fill="none" xmlns="http://www.w3.org/2000/svg">
<g clip-path="url(#clip0_23_209)">
<path d="M94 0H0V94H94V0Z" fill="#1E262E"/>
<path d="M93.9999 5.73834H5.73828V94H93.9999V5.73834Z" fill="#384048"/>
<path fill-rule="evenodd" clip-rule="evenodd" d="M41.8538 67.3645H58.3242C60.4542 67.3645 61.5292 66.3222 61.5292 65.049V57.7753C61.5292 56.5021 60.4523 55.6246 58.3242 55.6272L41.8538 55.6516C39.5241 55.5411 37.9946 56.1209 38.213 58.2626V64.7952C38.1141 66.6271 39.3282 67.4833 41.8538 67.3645ZM79.2802 60.6494V71.1376C79.2802 77.4055 74.4452 79.2092 68.0054 79.2092H28.7675C22.5729 79.2092 20.4963 75.4815 20.4963 71.7715V71.3444L20.5696 58.5603C20.5948 54.4882 21.4599 52.9128 26.0889 53.0865C27.9655 52.7586 28.5652 46.9761 26.2641 46.743C19.8913 46.4309 20.4688 42.3622 20.4703 38.1608L20.4673 27.2586C20.3496 23.9194 22.8771 20.5797 28.0497 20.641L61.7849 20.5583L73.6902 20.5294C77.4243 20.7644 79.2888 22.8666 79.2862 26.8364L79.2562 40.0077C79.3163 44.8224 78.7001 46.5317 74.0666 46.7039C71.9185 46.7547 72.1234 53.1475 73.9094 53.1249C79.5367 53.3791 79.2625 57.5068 79.2659 57.8553C79.2689 58.1475 79.2802 58.7386 79.2802 60.6494ZM41.8538 43.7723H58.3242C60.4542 43.7723 61.5292 42.73 61.5292 41.4569V34.1831C61.5292 32.91 60.4523 32.0324 58.3242 32.035L41.8538 32.0595C39.5241 31.9489 37.9946 32.5287 38.213 34.6704V41.2031C38.1141 43.0349 39.3282 43.8911 41.8538 43.7723Z" fill="#D0D8E0"/>
<rect width="94.0018" height="94.0018" fill="black" fill-opacity="0.7"/>
</g>
<defs>
<clipPath id="clip0_23_209">
<rect width="94" height="94" fill="white"/>
</clipPath>
</defs>
</svg>
