<svg width="728" height="728" viewBox="0 0 728 728" fill="none" xmlns="http://www.w3.org/2000/svg">
<g clip-path="url(#clip0_2022_66)">
<path fill-rule="evenodd" clip-rule="evenodd" d="M0 0H728L469.239 469.239L0 728V0Z" fill="#BFBFBF"/>
<path fill-rule="evenodd" clip-rule="evenodd" d="M728 0V728H0L728 0Z" fill="#404040"/>
<path d="M639.627 88.373H88.373V639.627H639.627V88.373Z" fill="#878787"/>
<path fill-rule="evenodd" clip-rule="evenodd" d="M92.0237 381.628L88 364.302L92.0237 346.737H347.376V91.3855L364.715 88.0078L382.267 91.3855V346.737H637.621L640.167 364.262L637.621 381.628H382.267V636.983L365.67 640L347.376 636.983V381.628H92.0237Z" fill="#C6C6C6" stroke="#C6C6C6" stroke-width="0.288"/>
<path d="M227.543 252.735C242.823 252.735 255.21 240.348 255.21 225.068C255.21 209.788 242.823 197.401 227.543 197.401C212.263 197.401 199.876 209.788 199.876 225.068C199.876 240.348 212.263 252.735 227.543 252.735Z" fill="#C6C6C6" stroke="#C6C6C6" stroke-width="0.288"/>
<path fill-rule="evenodd" clip-rule="evenodd" d="M197.062 554.865L182.095 546.359L174.139 531.941L341.898 364.184L174.139 196.427L183.752 181.956L197.062 173.503L364.82 341.26L532.58 173.5L547.078 182.122L555.504 196.424L387.744 364.184L555.504 531.944L547.631 546.868L532.58 554.868L364.82 387.108L197.062 554.865Z" fill="#C6C6C6" stroke="#C6C6C6" stroke-width="0.288"/>
<path d="M366.261 197.883C381.541 197.883 393.928 185.496 393.928 170.216C393.928 154.936 381.541 142.549 366.261 142.549C350.981 142.549 338.594 154.936 338.594 170.216C338.594 185.496 350.981 197.883 366.261 197.883Z" fill="#C6C6C6" stroke="#C6C6C6" stroke-width="0.288"/>
<path d="M364.823 215.026C445.449 215.026 510.81 280.387 510.81 361.012C510.809 441.638 445.449 506.999 364.823 506.999C284.197 506.999 218.837 441.638 218.837 361.012C218.837 280.386 284.197 215.026 364.823 215.026Z" fill="#C6C6C6" stroke="#C6C6C6" stroke-width="88.6772"/>
<path d="M496.722 260.148C512.002 260.148 524.389 247.761 524.389 232.481C524.389 217.201 512.002 204.814 496.722 204.814C481.442 204.814 469.055 217.201 469.055 232.481C469.055 247.761 481.442 260.148 496.722 260.148Z" fill="#C6C6C6" stroke="#C6C6C6" stroke-width="0.288"/>
<path d="M231.99 523.698C247.27 523.698 259.657 511.311 259.657 496.031C259.657 480.751 247.27 468.364 231.99 468.364C216.71 468.364 204.323 480.751 204.323 496.031C204.323 511.311 216.71 523.698 231.99 523.698Z" fill="#C6C6C6" stroke="#C6C6C6" stroke-width="0.288"/>
<path d="M496.722 523.698C512.002 523.698 524.389 511.311 524.389 496.031C524.389 480.751 512.002 468.364 496.722 468.364C481.442 468.364 469.055 480.751 469.055 496.031C469.055 511.311 481.442 523.698 496.722 523.698Z" fill="#C6C6C6" stroke="#C6C6C6" stroke-width="0.288"/>
</g>
<defs>
<clipPath id="clip0_2022_66">
<rect width="728" height="728" fill="white"/>
</clipPath>
</defs>
</svg>
