<svg width="728" height="728" viewBox="0 0 728 728" fill="none" xmlns="http://www.w3.org/2000/svg">
<path fill-rule="evenodd" clip-rule="evenodd" d="M0 0H728L469.239 469.239L0 728V0Z" fill="white"/>
<path fill-rule="evenodd" clip-rule="evenodd" d="M728 0V728H0L728 0Z" fill="#808080"/>
<path d="M639.627 88.3732H88.3732V639.627H639.627V88.3732Z" fill="#C6C6C6"/>
<path fill-rule="evenodd" clip-rule="evenodd" d="M136.089 138H589.718V249.97C591.328 286.903 582.508 313.408 568.956 335.177L429.919 591.006C408.6 591.006 387.284 591.006 365.968 591.006C332.667 590.4 321.581 589.596 321.278 560.642C320.023 537.623 326.295 515.722 343.997 487.4L435.117 328.71C444.386 314.901 454.901 295.828 453.721 269.308V235.872H187.596C162.183 236.469 135.797 228.4 136.001 181.756L136.089 138Z" fill="black"/>
</svg>
