<svg width="728" height="728" viewBox="0 0 728 728" fill="none" xmlns="http://www.w3.org/2000/svg">
<path fill-rule="evenodd" clip-rule="evenodd" d="M0 0H728L469.239 469.239L0 728V0Z" fill="white"/>
<path fill-rule="evenodd" clip-rule="evenodd" d="M728 0V728H0L728 0Z" fill="#808080"/>
<path d="M639.627 88.3732H88.3732V639.627H639.627V88.3732Z" fill="#C6C6C6"/>
<path fill-rule="evenodd" clip-rule="evenodd" d="M592.213 448.277V539.813C592.213 568.543 552.875 592.016 504.894 592.016H178.086C130.105 592.016 136.951 568.546 136.951 539.813V502.682H429.916C446.413 502.682 459.916 494.61 459.916 484.75V427.11C459.916 417.25 446.416 409.178 429.916 409.178H273.14V318.839H429.916C446.415 318.839 459.916 310.767 459.916 300.907V243.266C459.916 233.406 446.413 225.334 429.916 225.334H136.951V188.203C136.951 159.471 126.55 136 174.534 136H504.894C552.878 136 592.214 159.474 592.214 188.203V278.036C593.402 301.935 587.782 313.402 573.251 319.503C553.554 327.773 547.127 341.235 547.127 351.127V377.81C547.127 396.423 555.901 403.706 572.738 411.641C589.217 419.408 592.213 431.358 592.213 448.277Z" fill="#EC0000"/>
</svg>
