<svg width="94" height="94" viewBox="0 0 94 94" fill="none" xmlns="http://www.w3.org/2000/svg">
<g clip-path="url(#clip0_28_220)">
<path fill-rule="evenodd" clip-rule="evenodd" d="M0 0H94L60.5886 60.5886L0 94V0Z" fill="#707880"/>
<path fill-rule="evenodd" clip-rule="evenodd" d="M94 0V94H0L94 0Z" fill="#222A32"/>
<path d="M82.5893 11.4108H11.4109V82.5891H82.5893V11.4108Z" fill="#4C545C"/>
<path fill-rule="evenodd" clip-rule="evenodd" d="M75.7396 58.0269V71.1294C75.7396 76.1779 70.9053 76.5866 64.4648 76.5866H22.2671C16.0717 76.5866 16.9557 73.5561 16.9557 69.8461V65.0517H54.7836C56.9136 65.0517 57.9886 64.0094 57.9886 62.7363V55.2938C57.9886 54.0206 56.9125 53.143 54.7836 53.1457L16.9309 53.2013L16.9257 18.0371L75.5659 17.907L75.579 21.0165C75.8155 28.1154 73.9194 29.8205 68.4617 29.8397L34.3003 29.8438L34.2706 41.6536L64.578 41.537C69.563 41.5178 75.6399 41.2858 75.7253 46.9781C75.7603 49.3281 75.7396 55.8427 75.7396 58.0269Z" fill="#DDAA22" fill-opacity="0.15"/>
</g>
<defs>
<clipPath id="clip0_28_220">
<rect width="94" height="94" fill="white"/>
</clipPath>
</defs>
</svg>
