<svg width="94" height="94" viewBox="0 0 94 94" fill="none" xmlns="http://www.w3.org/2000/svg">
<g clip-path="url(#clip0_28_263)">
<path fill-rule="evenodd" clip-rule="evenodd" d="M0 0H94L60.5886 60.5886L0 94V0Z" fill="#707880"/>
<path fill-rule="evenodd" clip-rule="evenodd" d="M94 0V94H0L94 0Z" fill="#222A32"/>
<path d="M82.5893 11.4108H11.4109V82.5891H82.5893V11.4108Z" fill="#4C545C"/>
<path fill-rule="evenodd" clip-rule="evenodd" d="M75.7393 58.0267V68.5149C75.7393 74.7828 70.9044 76.5865 64.4646 76.5865H25.2269C19.0323 76.5865 16.9557 72.8588 16.9557 69.1488V68.7217L16.9121 46.049L16.9268 24.6362C16.8091 21.297 19.3366 17.9574 24.5092 18.0187L70.1494 17.907L70.1562 19.9065C70.3829 27.4126 69.4617 29.5953 63.4495 29.795L34.9506 29.6698L34.9209 41.4795L64.5778 41.5371C70.7815 41.5491 75.6405 43.029 75.7251 48.7209C75.7597 51.0701 75.7393 55.8429 75.7393 58.0267ZM34.6724 65.0515H34.8375H54.7835C56.9135 65.0515 57.9885 64.0093 57.9885 62.7361V55.2936C57.9885 54.0205 56.9124 53.1429 54.7835 53.1455L34.6724 53.1752L34.6724 65.0515Z" fill="#66CCCC" fill-opacity="0.15"/>
</g>
<defs>
<clipPath id="clip0_28_263">
<rect width="94" height="94" fill="white"/>
</clipPath>
</defs>
</svg>
