<svg width="94" height="94" viewBox="0 0 94 94" fill="none" xmlns="http://www.w3.org/2000/svg">
<g clip-path="url(#clip0_28_249)">
<path fill-rule="evenodd" clip-rule="evenodd" d="M0 0H94L60.5886 60.5886L0 94V0Z" fill="#707880"/>
<path fill-rule="evenodd" clip-rule="evenodd" d="M94 0V94H0L94 0Z" fill="#222A32"/>
<path d="M82.5893 11.4108H11.4109V82.5891H82.5893V11.4108Z" fill="#4C545C"/>
<path fill-rule="evenodd" clip-rule="evenodd" d="M38.3133 64.7421H54.7837C56.9137 64.7421 57.9887 63.6998 57.9887 62.4267V55.1529C57.9887 53.8798 56.9118 53.0022 54.7837 53.0048L38.3133 53.0293C35.9836 52.9187 34.4541 53.4985 34.6725 55.6402V62.1729C34.5736 64.0047 35.7877 64.8609 38.3133 64.7421ZM75.7396 58.0271V68.5152C75.7396 74.7831 70.9046 76.5868 64.4649 76.5868H25.227C19.0324 76.5868 16.9557 72.8591 16.9557 69.1491V68.722L17.029 55.9379C17.0542 51.8659 17.9194 50.2904 22.5484 50.4641C24.425 50.1363 25.0247 44.3537 22.7236 44.1206C16.3508 43.8086 16.9283 39.7399 16.9298 35.5384L16.9268 24.6363C16.8091 21.297 19.3366 17.9573 24.5092 18.0187L58.2444 17.9359L70.1497 17.907C73.8837 18.142 75.7483 20.2442 75.7457 24.214L75.7156 37.3853C75.7758 42.2 75.1595 43.9093 70.5261 44.0815C68.378 44.1323 68.5829 50.5251 70.3689 50.5025C75.9961 50.7567 75.722 54.8844 75.7254 55.233C75.7284 55.5251 75.7396 56.1162 75.7396 58.0271ZM38.3133 41.1499H54.7837C56.9137 41.1499 57.9887 40.1076 57.9887 38.8345V31.5607C57.9887 30.2876 56.9118 29.41 54.7837 29.4126L38.3133 29.4371C35.9836 29.3265 34.4541 29.9063 34.6725 32.048V38.5807C34.5736 40.4126 35.7877 41.2687 38.3133 41.1499Z" fill="#D0D8E0" fill-opacity="0.16"/>
</g>
<defs>
<clipPath id="clip0_28_249">
<rect width="94" height="94" fill="white"/>
</clipPath>
</defs>
</svg>
