<svg width="94" height="94" viewBox="0 0 94 94" fill="none" xmlns="http://www.w3.org/2000/svg">
<g clip-path="url(#clip0_28_271)">
<path fill-rule="evenodd" clip-rule="evenodd" d="M0 0H94L60.5886 60.5886L0 94V0Z" fill="#707880"/>
<path fill-rule="evenodd" clip-rule="evenodd" d="M94 0V94H0L94 0Z" fill="#222A32"/>
<path d="M82.5893 11.4108H11.4109V82.5891H82.5893V11.4108Z" fill="#4C545C"/>
<path fill-rule="evenodd" clip-rule="evenodd" d="M53.0937 17.907H70.1115V41.5124H73.817C74.7521 41.5124 76.1501 41.9121 76.1501 43.8049C76.1501 45.6977 76.1501 49.8713 76.1501 50.433C76.1501 50.9948 76.5633 53.0996 74.0915 53.1778C71.6197 53.256 70.1115 53.3151 70.1115 53.3151V76.5087H52.6824V53.0409H25.8494C19.8872 53.0409 13.8046 54.2497 18.699 44.6929L27.4546 23.5929C28.5375 20.0885 31.0142 17.9784 35.5281 17.907H46.369L36.8994 41.5124H52.5448L53.0937 17.907Z" fill="#EE88FF" fill-opacity="0.15"/>
</g>
<defs>
<clipPath id="clip0_28_271">
<rect width="94" height="94" fill="white"/>
</clipPath>
</defs>
</svg>
