<svg width="94" height="94" viewBox="0 0 94 94" fill="none" xmlns="http://www.w3.org/2000/svg">
<g clip-path="url(#clip0_28_287)">
<path fill-rule="evenodd" clip-rule="evenodd" d="M0 0H94L60.5886 60.5886L0 94V0Z" fill="#707880"/>
<path fill-rule="evenodd" clip-rule="evenodd" d="M94 0V94H0L94 0Z" fill="#222A32"/>
<path d="M82.5893 11.4108H11.4109V82.5891H82.5893V11.4108Z" fill="#4C545C"/>
<path fill-rule="evenodd" clip-rule="evenodd" d="M17.9088 34.636H34.998V28.9539C42.1378 28.9854 48.2276 28.8764 55.3678 28.9076C56.6379 28.9738 61.0815 28.1737 60.9112 32.7315L60.9315 34.9699C60.7788 38.608 56.3375 38.7836 53.1693 40.2154C29.7437 47.4031 18.1171 50.9826 18.0972 55.6375C17.9629 57.9976 18.0133 61.1643 17.969 63.6136L17.9806 75.3576L76.0572 75.7366L75.8681 64.1829L35.1146 64.1039L35.0943 62.3969C35.2109 61.1591 34.7721 59.6224 36.3926 58.8978C43.2945 56.3414 57.8077 51.5376 71.205 47.0663C75.6004 45.1453 76.3445 40.0776 76.3175 34.997L76.375 24.6661C76.3509 19.8578 73.7483 16.7246 69.1299 16.9208L24.4659 16.993C18.5394 17.2055 17.9141 22.7097 17.907 25.7847L17.9088 34.636Z" fill="#66C266" fill-opacity="0.15"/>
</g>
<defs>
<clipPath id="clip0_28_287">
<rect width="94" height="94" fill="white"/>
</clipPath>
</defs>
</svg>
