<svg width="95" height="95" viewBox="0 0 95 95" fill="none" xmlns="http://www.w3.org/2000/svg">
<path fill-rule="evenodd" clip-rule="evenodd" d="M80.9328 59.1434V69.686C80.9328 75.9865 76.0727 77.7995 69.5995 77.7995H30.158C23.9313 77.7995 21.8439 74.0525 21.8439 70.3233V69.8939L21.8 47.1035L21.8148 25.5795C21.6965 22.2229 24.2371 18.866 29.4366 18.9276L75.3139 18.8153L75.3207 20.8253C75.5486 28.3703 74.6226 30.5643 68.5792 30.765L39.9323 30.6392L39.9024 42.5103L69.7133 42.5681C75.9492 42.5802 80.8334 44.0678 80.9185 49.7893C80.9532 52.1507 80.9328 56.9483 80.9328 59.1434ZM39.6526 66.2047H39.8185H59.8681C62.0092 66.2047 63.0897 65.157 63.0897 63.8773V56.3961C63.0897 55.1164 62.008 54.2342 59.8681 54.2369L39.6526 54.2667L39.6526 66.2047Z" fill="#66CCCC"/>
</svg>
