<svg width="95" height="95" viewBox="0 0 95 95" fill="none" xmlns="http://www.w3.org/2000/svg">
<path fill-rule="evenodd" clip-rule="evenodd" d="M42.0711 67.7143H58.6269C60.7681 67.7143 61.8486 66.6666 61.8486 65.3868V58.0753C61.8486 56.7955 60.7662 55.9134 58.6269 55.916L42.0711 55.9406C39.7293 55.8295 38.1918 56.4123 38.4113 58.5651V65.1317C38.3119 66.9731 39.5324 67.8337 42.0711 67.7143ZM79.6918 60.9644V71.507C79.6918 77.8075 74.8317 79.6205 68.3584 79.6205H28.9168C22.69 79.6205 20.6026 75.8735 20.6026 72.1442V71.7148L20.6763 58.8644C20.7016 54.7712 21.5713 53.1875 26.2243 53.3622C28.1106 53.0326 28.7135 47.22 26.4004 46.9857C19.9945 46.672 20.575 42.5822 20.5765 38.3589L20.5735 27.4001C20.4552 24.0435 22.9958 20.6866 28.1953 20.7482L62.1057 20.665L74.0728 20.6359C77.8262 20.8721 79.7005 22.9853 79.6979 26.9757L79.6676 40.2154C79.7281 45.0551 79.1086 46.7733 74.4511 46.9464C72.2919 46.9974 72.4979 53.4234 74.2931 53.4007C79.9496 53.6562 79.6741 57.8054 79.6775 58.1558C79.6805 58.4494 79.6918 59.0436 79.6918 60.9644ZM42.0711 43.9995H58.6269C60.7681 43.9995 61.8486 42.9519 61.8486 41.6721V34.3606C61.8486 33.0808 60.7662 32.1987 58.6269 32.2013L42.0711 32.2259C39.7293 32.1148 38.1918 32.6976 38.4113 34.8504V41.417C38.3119 43.2584 39.5324 44.119 42.0711 43.9995Z" fill="#D0D8E0"/>
</svg>
