<svg width="95" height="95" viewBox="0 0 95 95" fill="none" xmlns="http://www.w3.org/2000/svg">
<path fill-rule="evenodd" clip-rule="evenodd" d="M79.6059 60.0816V71.9622C79.6059 75.6911 74.5002 78.7377 68.2726 78.7377H25.8558C19.6282 78.7377 20.5168 75.6914 20.5168 71.9622V67.1429H58.5411C60.6822 67.1429 62.4348 66.0952 62.4348 64.8155V57.3343C62.4348 56.0545 60.6826 55.0069 58.5411 55.0069H38.1929V43.412V43.2816H58.5411C60.6826 43.2816 62.4348 42.2339 62.4348 40.9542V33.473C62.4348 32.1932 60.6822 31.1456 58.5411 31.1456H20.5168V26.3263C20.5168 22.597 19.1667 19.5507 25.3947 19.5507H68.2726C74.5006 19.5507 79.606 22.5974 79.606 26.3263V37.9858C79.7602 41.0876 79.0307 42.576 77.1447 43.3678C74.5883 44.4412 73.7541 46.1885 73.7541 47.4724V50.9356C73.7541 53.3514 74.8929 54.2967 77.0782 55.3266C79.2171 56.3346 79.6059 57.8857 79.6059 60.0816Z" fill="#FF7788"/>
</svg>
