<svg width="95" height="95" viewBox="0 0 95 95" fill="none" xmlns="http://www.w3.org/2000/svg">
<path fill-rule="evenodd" clip-rule="evenodd" d="M79.6917 59.6579V72.8285C79.6917 77.9032 74.8323 78.3141 68.3584 78.3141H25.9415C19.7139 78.3141 20.6025 75.2678 20.6025 71.5385V66.7192H58.6269C60.768 66.7192 61.8485 65.6715 61.8485 64.3918V56.9106C61.8485 55.6309 60.7668 54.7487 58.6269 54.7514L20.5776 54.8073L20.5723 19.4604L79.5171 19.3297L79.5303 22.4553C79.7681 29.5911 77.862 31.3051 72.376 31.3243L38.0372 31.3285L38.0073 43.1996L68.4722 43.0824C73.4831 43.0631 79.5915 42.8299 79.6774 48.5518C79.7125 50.914 79.6917 57.4624 79.6917 59.6579Z" fill="#DDAA22"/>
</svg>
