<svg width="95" height="95" viewBox="0 0 95 95" fill="none" xmlns="http://www.w3.org/2000/svg">
<path fill-rule="evenodd" clip-rule="evenodd" d="M20.9575 37.6642H38.1354V31.9526C45.3124 31.9843 51.4337 31.8747 58.611 31.9061C59.8878 31.9726 64.3544 31.1683 64.1832 35.7498L64.2036 37.9998C64.0502 41.6569 59.5858 41.8334 56.4012 43.2726C32.8539 50.4976 21.1669 54.0957 21.1469 58.7748C21.0119 61.1472 21.0626 64.3303 21.018 66.7923L21.0297 78.5973L79.4079 78.9783L79.2178 67.3646L38.2527 67.2852L38.2323 65.5693C38.3494 64.3251 37.9084 62.7804 39.5373 62.0521C46.475 59.4823 61.0636 54.6536 74.5305 50.1591C78.9488 48.2281 79.6967 43.134 79.6695 38.0271L79.7274 27.6425C79.7032 22.8092 77.087 19.6597 72.4446 19.857L27.5487 19.9296C21.5914 20.1431 20.9629 25.676 20.9557 28.7669L20.9575 37.6642Z" fill="#66C266"/>
</svg>
