<svg width="728" height="728" viewBox="0 0 728 728" fill="none" xmlns="http://www.w3.org/2000/svg">
<path d="M728 0H0V728H728V0Z" fill="#808080"/>
<path d="M727.997 44.4414H44.4412V727.997H727.997V44.4414Z" fill="#C6C6C6"/>
<path fill-rule="evenodd" clip-rule="evenodd" d="M89.9019 405.169L85.5312 386.349L89.9019 367.27H367.27V89.9018L386.105 86.2329L405.169 89.9018V367.27H682.54L685.305 386.305L682.54 405.169H405.169V682.54L387.142 685.817L367.27 682.54V405.169H89.9019Z" fill="black" stroke="black" stroke-width="0.288"/>
<path d="M237.106 265.164C253.704 265.164 267.159 251.709 267.159 235.111C267.159 218.514 253.704 205.059 237.106 205.059C220.508 205.059 207.053 218.514 207.053 235.111C207.053 251.709 220.508 265.164 237.106 265.164Z" fill="black" stroke="black" stroke-width="0.288"/>
<path fill-rule="evenodd" clip-rule="evenodd" d="M203.997 593.343L187.74 584.103L179.097 568.442L361.32 386.221L179.097 204L189.539 188.281L203.997 179.099L386.219 361.32L568.442 179.097L584.191 188.462L593.343 203.997L411.119 386.221L593.343 568.445L584.791 584.656L568.442 593.346L386.219 411.122L203.997 593.343Z" fill="black" stroke="black" stroke-width="0.288"/>
<path d="M387.783 205.581C404.381 205.581 417.836 192.126 417.836 175.529C417.836 158.931 404.381 145.476 387.783 145.476C371.186 145.476 357.731 158.931 357.731 175.529C357.731 192.126 371.186 205.581 387.783 205.581Z" fill="black" stroke="black" stroke-width="0.288"/>
<path d="M386.221 589.51C500.398 589.51 592.956 496.952 592.956 382.776C592.956 268.599 500.398 176.041 386.221 176.041C272.045 176.041 179.487 268.599 179.487 382.776C179.487 496.952 272.045 589.51 386.221 589.51Z" fill="url(#paint0_radial_13_135)"/>
<path d="M529.493 273.215C546.091 273.215 559.546 259.76 559.546 243.163C559.546 226.565 546.091 213.11 529.493 213.11C512.895 213.11 499.44 226.565 499.44 243.163C499.44 259.76 512.895 273.215 529.493 273.215Z" fill="black" stroke="black" stroke-width="0.288"/>
<path d="M241.937 559.488C258.535 559.488 271.99 546.033 271.99 529.435C271.99 512.838 258.535 499.383 241.937 499.383C225.34 499.383 211.885 512.838 211.885 529.435C211.885 546.033 225.34 559.488 241.937 559.488Z" fill="black" stroke="black" stroke-width="0.288"/>
<path d="M529.493 559.488C546.091 559.488 559.546 546.033 559.546 529.435C559.546 512.838 546.091 499.383 529.493 499.383C512.895 499.383 499.44 512.838 499.44 529.435C499.44 546.033 512.895 559.488 529.493 559.488Z" fill="black" stroke="black" stroke-width="0.288"/>
<path d="M349.821 384.375C365.21 384.375 377.686 371.899 377.686 356.51C377.686 341.121 365.21 328.645 349.821 328.645C334.432 328.645 321.956 341.121 321.956 356.51C321.956 371.899 334.432 384.375 349.821 384.375Z" fill="white"/>
<rect x="44" y="44" width="684" height="684" fill="black" fill-opacity="0.7"/>
<defs>
<radialGradient id="paint0_radial_13_135" cx="0" cy="0" r="1" gradientUnits="userSpaceOnUse" gradientTransform="translate(344.874 349.698) scale(105.618)">
<stop stop-color="white"/>
<stop offset="0.129412" stop-color="#E5E5E1"/>
<stop offset="0.290196" stop-color="#CCC8C8"/>
<stop offset="0.439216" stop-color="#B2B4B4"/>
<stop offset="0.74902" stop-color="#464D43"/>
<stop offset="1"/>
</radialGradient>
</defs>
</svg>
