<svg width="728" height="728" viewBox="0 0 728 728" fill="none" xmlns="http://www.w3.org/2000/svg">
<path d="M728 0H0V728H728V0Z" fill="#808080"/>
<path d="M728.001 44.4414H44.4414V728.001H728.001V44.4414Z" fill="#C6C6C6"/>
<path fill-rule="evenodd" clip-rule="evenodd" d="M432.757 152.295H564.554V335.111H593.252C600.494 335.111 611.321 338.207 611.321 352.866C611.321 367.525 611.321 399.848 611.321 404.199C611.321 408.549 614.521 424.851 595.378 425.456C576.234 426.062 564.554 426.519 564.554 426.519V606.146H429.571V424.396H221.759C175.583 424.396 128.475 433.758 166.381 359.743L234.19 196.33C242.576 169.19 261.758 152.848 296.717 152.295H380.676L307.337 335.111H428.506L432.757 152.295Z" fill="#000080"/>
<rect x="44" y="44" width="684" height="684" fill="black" fill-opacity="0.7"/>
</svg>
