<svg width="728" height="728" viewBox="0 0 728 728" fill="none" xmlns="http://www.w3.org/2000/svg">
<g clip-path="url(#clip0_13_85)">
<path d="M728 0H0V728H728V0Z" fill="#808080"/>
<path d="M727.999 44.4414H44.4412V727.999H727.999V44.4414Z" fill="#C6C6C6"/>
<path fill-rule="evenodd" clip-rule="evenodd" d="M161.471 290.19H293.821V246.184C349.117 246.428 396.28 245.584 451.579 245.826C461.415 246.338 495.829 240.141 494.51 275.441L494.667 292.776C493.485 320.952 459.089 322.312 434.552 333.401C253.128 389.067 163.084 416.789 162.93 452.84C161.89 471.119 162.28 495.644 161.937 514.612L162.027 605.566L611.811 608.501L610.346 519.021L294.724 518.41L294.567 505.189C295.469 495.603 292.071 483.702 304.622 478.09C358.075 458.292 470.475 421.088 574.233 386.459C608.274 371.581 614.037 332.333 613.827 292.986L614.273 212.976C614.086 175.737 593.929 151.472 558.161 152.992L212.253 153.551C166.355 155.196 161.512 197.825 161.457 221.639L161.471 290.19Z" fill="#007700"/>
<rect x="44" y="44" width="684" height="684" fill="black" fill-opacity="0.7"/>
</g>
<defs>
<clipPath id="clip0_13_85">
<rect width="728" height="728" fill="white"/>
</clipPath>
</defs>
</svg>
