<svg width="728" height="728" viewBox="0 0 728 728" fill="none" xmlns="http://www.w3.org/2000/svg">
<path d="M728 0H0V728H728V0Z" fill="#808080"/>
<path d="M727.999 44.4409H44.4411V727.999H727.999V44.4409Z" fill="#C6C6C6"/>
<path fill-rule="evenodd" clip-rule="evenodd" d="M623.561 455.681V536.908C623.561 585.451 586.115 599.42 536.242 599.42H232.358C184.383 599.42 168.3 570.55 168.3 541.818V538.51L167.962 362.917L168.076 197.082C167.165 171.22 186.739 145.356 226.8 145.831L580.269 144.966L580.321 160.452C582.077 218.584 574.943 235.488 528.38 237.035L307.665 236.065L307.435 327.528L537.118 327.973C585.163 328.066 622.795 339.528 623.45 383.61C623.718 401.804 623.561 438.768 623.561 455.681ZM305.51 510.085H306.789H461.264C477.76 510.085 486.086 502.013 486.086 492.153V434.513C486.086 424.653 477.752 417.857 461.264 417.877L305.51 418.107L305.51 510.085Z" fill="#008080"/>
<rect x="46" y="44" width="682" height="684" fill="black" fill-opacity="0.7"/>
</svg>
