<svg width="728" height="728" viewBox="0 0 728 728" fill="none" xmlns="http://www.w3.org/2000/svg">
<path fill-rule="evenodd" clip-rule="evenodd" d="M0 0H728L469.239 469.239L0 728V0Z" fill="white"/>
<path fill-rule="evenodd" clip-rule="evenodd" d="M728 0V728H0L728 0Z" fill="#808080"/>
<path d="M639.627 88.3732H88.3732V639.627H639.627V88.3732Z" fill="#C6C6C6"/>
<path fill-rule="evenodd" clip-rule="evenodd" d="M415.215 136H547.013V318.816H575.71C582.953 318.816 593.779 321.912 593.779 336.571C593.779 351.23 593.779 383.553 593.779 387.904C593.779 392.254 596.98 408.556 577.836 409.161C558.693 409.767 547.013 410.224 547.013 410.224V589.851H412.029V408.101H204.217C158.041 408.101 110.934 417.463 148.839 343.448L216.648 180.035C225.035 152.895 244.216 136.553 279.175 136H363.134L289.795 318.816H410.964L415.215 136Z" fill="#000080" fill-opacity="0.15"/>
</svg>
