<svg width="728" height="728" viewBox="0 0 728 728" fill="none" xmlns="http://www.w3.org/2000/svg">
<path d="M728 0H0V728H728V0Z" fill="#808080"/>
<path d="M727.998 44.4409H44.441V727.998H727.998V44.4409Z" fill="#C6C6C6"/>
<path fill-rule="evenodd" clip-rule="evenodd" d="M613.998 459.645V561.12C613.998 600.219 576.559 603.384 526.679 603.384H199.871C151.89 603.384 158.736 579.914 158.736 551.181V514.05H451.701C468.197 514.05 476.523 505.978 476.523 496.118V438.478C476.523 428.618 468.189 421.821 451.701 421.842L158.544 422.273L158.504 149.937L612.653 148.929L612.755 173.011C614.587 227.99 599.902 241.196 557.634 241.344L293.064 241.376L292.834 332.839L527.556 331.936C566.163 331.788 613.227 329.991 613.888 374.076C614.159 392.276 613.998 442.729 613.998 459.645Z" fill="#800000"/>
<rect x="46" y="44" width="682" height="684" fill="black" fill-opacity="0.7"/>
</svg>
