<svg width="728" height="728" viewBox="0 0 728 728" fill="none" xmlns="http://www.w3.org/2000/svg">
<path d="M728 0H0V728H728V0Z" fill="#707070"/>
<path d="M728 44.4414H44.4414V728H728V44.4414Z" fill="#C6C6C6"/>
<path fill-rule="evenodd" clip-rule="evenodd" d="M324.144 521.716H451.701C468.198 521.716 476.523 513.644 476.523 503.784V447.451C476.523 437.591 468.183 430.794 451.701 430.815L324.144 431.004C306.101 430.148 294.255 434.638 295.947 451.225V501.818C295.181 516.006 304.584 522.636 324.144 521.716ZM613.999 469.71V550.938C613.999 599.481 576.553 613.45 526.679 613.45H222.794C174.819 613.45 158.736 584.58 158.736 555.847V552.539L159.304 453.531C159.499 421.994 166.199 409.792 202.049 411.138C216.583 408.599 221.228 363.815 203.406 362.01C154.051 359.593 158.523 328.082 158.535 295.543L158.512 211.109C157.6 185.248 177.175 159.383 217.235 159.858L478.503 159.217L570.706 158.993C599.625 160.813 614.066 177.094 614.046 207.839L613.813 309.847C614.279 347.135 609.506 360.373 573.621 361.707C556.985 362.1 558.572 411.61 572.404 411.435C615.985 413.404 613.862 445.372 613.888 448.071C613.912 450.334 613.999 454.912 613.999 469.71ZM324.144 339.002H451.701C468.198 339.002 476.523 330.93 476.523 321.07V264.737C476.523 254.877 468.183 248.08 451.701 248.101L324.144 248.29C306.101 247.434 294.255 251.924 295.947 268.511V319.104C295.181 333.292 304.584 339.922 324.144 339.002Z" fill="#707070"/>
<rect x="44" y="44" width="684" height="684" fill="black" fill-opacity="0.7"/>
</svg>
