<svg width="728" height="728" viewBox="0 0 728 728" fill="none" xmlns="http://www.w3.org/2000/svg">
<path d="M727.999 0H0V727.999H727.999V0Z" fill="#808080"/>
<path d="M728 44.4409H44.4409V728H728V44.4409Z" fill="#C6C6C6"/>
<path fill-rule="evenodd" clip-rule="evenodd" d="M154.773 154.715H608.401V266.684C610.011 303.617 601.19 330.122 587.638 351.892L448.602 607.72C427.283 607.72 405.967 607.72 384.651 607.72C351.35 607.114 340.264 606.31 339.961 577.356C338.706 554.337 344.978 532.436 362.68 504.114L453.799 345.425C463.068 331.616 473.583 312.542 472.404 286.023V252.587H206.279C180.866 253.184 154.481 245.115 154.684 198.471L154.773 154.715Z" fill="black"/>
<rect x="44" y="44" width="684" height="684" fill="black" fill-opacity="0.7"/>
</svg>
