<svg width="94" height="94" viewBox="0 0 94 94" fill="none" xmlns="http://www.w3.org/2000/svg">
<g clip-path="url(#clip0_32_336)">
<path fill-rule="evenodd" clip-rule="evenodd" d="M0 0H94L60.5886 60.5886L0 94V0Z" fill="#707880"/>
<path fill-rule="evenodd" clip-rule="evenodd" d="M94 0V94H0L94 0Z" fill="#222A32"/>
<path d="M82.5893 11.4109H11.4109V82.5893H82.5893V11.4109Z" fill="#4C545C"/>
<g opacity="0.4">
<path fill-rule="evenodd" clip-rule="evenodd" d="M15.3866 48.7795L14.9226 46.7816L15.3866 44.7562H44.8307V15.3121L46.8301 14.9226L48.854 15.3121V44.7562H78.2984L78.5919 46.777L78.2984 48.7795H48.854V78.2239L46.9402 78.5718L44.8307 78.2239V48.7795H15.3866Z" fill="black" stroke="black" stroke-width="0.288"/>
<path d="M31.013 33.9171C32.7749 33.9171 34.2032 32.4888 34.2032 30.7269C34.2032 28.9649 32.7749 27.5366 31.013 27.5366C29.2511 27.5366 27.8228 28.9649 27.8228 30.7269C27.8228 32.4888 29.2511 33.9171 31.013 33.9171Z" fill="black" stroke="black" stroke-width="0.288"/>
<path fill-rule="evenodd" clip-rule="evenodd" d="M27.4983 68.755L25.7725 67.7742L24.855 66.1117L44.199 46.768L24.855 27.4242L25.9635 25.7555L27.4983 24.7808L46.8421 44.1246L66.1862 24.7805L67.858 25.7747L68.8295 27.4238L49.4854 46.768L68.8295 66.112L67.9217 67.8329L66.1862 68.7554L46.8421 49.4113L27.4983 68.755Z" fill="black" stroke="black" stroke-width="0.288"/>
<path d="M47.0084 27.5922C48.7703 27.5922 50.1986 26.1638 50.1986 24.4019C50.1986 22.64 48.7703 21.2117 47.0084 21.2117C45.2464 21.2117 43.8181 22.64 43.8181 24.4019C43.8181 26.1638 45.2464 27.5922 47.0084 27.5922Z" fill="black" stroke="black" stroke-width="0.288"/>
<path d="M46.8425 68.3483C58.963 68.3483 68.7885 58.5228 68.7885 46.4023C68.7885 34.2819 58.963 24.4563 46.8425 24.4563C34.7221 24.4563 24.8965 34.2819 24.8965 46.4023C24.8965 58.5228 34.7221 68.3483 46.8425 68.3483Z" fill="url(#paint0_radial_32_336)"/>
<path d="M62.0516 34.7718C63.8135 34.7718 65.2418 33.3435 65.2418 31.5816C65.2418 29.8197 63.8135 28.3914 62.0516 28.3914C60.2896 28.3914 58.8613 29.8197 58.8613 31.5816C58.8613 33.3435 60.2896 34.7718 62.0516 34.7718Z" fill="black" stroke="black" stroke-width="0.288"/>
<path d="M31.5257 65.1612C33.2876 65.1612 34.7159 63.7329 34.7159 61.971C34.7159 60.2091 33.2876 58.7808 31.5257 58.7808C29.7638 58.7808 28.3354 60.2091 28.3354 61.971C28.3354 63.7329 29.7638 65.1612 31.5257 65.1612Z" fill="black" stroke="black" stroke-width="0.288"/>
<path d="M62.0516 65.1612C63.8135 65.1612 65.2418 63.7329 65.2418 61.971C65.2418 60.2091 63.8135 58.7808 62.0516 58.7808C60.2896 58.7808 58.8613 60.2091 58.8613 61.971C58.8613 63.7329 60.2896 65.1612 62.0516 65.1612Z" fill="black" stroke="black" stroke-width="0.288"/>
</g>
</g>
<defs>
<radialGradient id="paint0_radial_32_336" cx="0" cy="0" r="1" gradientUnits="userSpaceOnUse" gradientTransform="translate(42.4532 42.891) scale(11.212)">
<stop stop-color="#CCCCCC"/>
<stop offset="0.129412" stop-color="#AAAAAA"/>
<stop offset="0.290196" stop-color="#888888"/>
<stop offset="0.439216" stop-color="#666666"/>
<stop offset="0.74902" stop-color="#333333"/>
<stop offset="1"/>
</radialGradient>
<clipPath id="clip0_32_336">
<rect width="94" height="94" fill="white"/>
</clipPath>
</defs>
</svg>
