<svg width="94" height="94" viewBox="0 0 94 94" fill="none" xmlns="http://www.w3.org/2000/svg">
<g clip-path="url(#clip0_32_381)">
<path fill-rule="evenodd" clip-rule="evenodd" d="M0 0H94L60.5886 60.5886L0 94V0Z" fill="#707880"/>
<path fill-rule="evenodd" clip-rule="evenodd" d="M94 0V94H0L94 0Z" fill="#222A32"/>
<path d="M82.5893 11.4109H11.4109V82.5893H82.5893V11.4109Z" fill="#4C545C"/>
<path fill-rule="evenodd" clip-rule="evenodd" d="M75.8188 57.2336V69.0528C75.8188 72.7624 70.7394 75.7933 64.544 75.7933H22.3463C16.151 75.7933 17.035 72.7628 17.035 69.0528V64.2584H54.8628C56.9929 64.2584 58.7364 63.2161 58.7364 61.943V54.5005C58.7364 53.2273 56.9932 52.1851 54.8628 52.1851H34.6197V40.6501V40.5204H54.8628C56.9932 40.5204 58.7364 39.4781 58.7364 38.205V30.7624C58.7364 29.4893 56.9929 28.447 54.8628 28.447H17.035V23.6527C17.035 19.9427 15.6919 16.9121 21.8876 16.9121H64.5441C70.7398 16.9121 75.8188 19.943 75.8188 23.6527V35.2519C75.9722 38.3377 75.2466 39.8184 73.3703 40.6062C70.8271 41.674 69.9972 43.4122 69.9972 44.6895V48.1348C69.9972 50.5382 71.1301 51.4786 73.3042 52.5032C75.4319 53.506 75.8188 55.049 75.8188 57.2336Z" fill="#FF7788" fill-opacity="0.4"/>
</g>
<defs>
<clipPath id="clip0_32_381">
<rect width="94" height="94" fill="white"/>
</clipPath>
</defs>
</svg>
